<svg version="1.1" id="Layer_1" xmlns="http://www.w3.org/2000/svg" xmlns:xlink="http://www.w3.org/1999/xlink" x="0px" y="0px"
	 width="100%" viewBox="0 0 517 516" enable-background="new 0 0 517 516" xml:space="preserve">
<path fill="#000000" opacity="1.000000" stroke="none" 
	d="
M1.000000,433.000000 
	C1.000000,427.645081 1.000000,422.290131 1.468306,416.487061 
	C42.528805,416.038879 83.120995,416.038879 123.445808,416.038879 
	C125.023537,410.499359 123.215141,407.787109 118.370728,405.658112 
	C108.349030,401.253754 98.720810,395.962067 88.820587,391.267670 
	C86.316383,390.080261 85.508743,388.663849 85.510780,385.970825 
	C85.574203,302.009705 85.575226,218.048523 85.505646,134.087418 
	C85.503410,131.387939 86.283234,129.971710 88.782791,128.783127 
	C98.827408,124.006752 108.616539,118.674469 118.769493,114.152512 
	C123.719193,111.948006 124.949043,109.017471 123.359398,104.000000 
	C82.578011,104.000000 41.789005,104.000000 1.000000,104.000000 
	C1.000000,98.645073 1.000000,93.290138 1.442176,87.299530 
	C11.003342,86.663841 20.122332,86.663841 29.674139,86.663841 
	C29.674139,67.157913 29.674139,48.251724 29.674139,29.125467 
	C183.979416,29.125467 337.842468,29.125467 491.715485,29.125467 
	C491.715485,183.241486 491.715485,337.106781 491.715485,490.902344 
	C337.649567,490.902344 183.901138,490.902344 29.713539,490.902344 
	C29.713539,471.776123 29.713539,452.868622 29.713539,433.000000 
	C19.856180,433.000000 10.428090,433.000000 1.000000,433.000000 
M371.610016,283.925659 
	C364.833435,277.333160 358.829926,269.590790 351.110504,264.400574 
	C337.354462,255.151596 322.638794,247.308044 308.179749,239.132584 
	C293.442383,230.799789 278.259766,223.225494 263.763580,214.502335 
	C245.354736,203.424713 238.418030,186.357986 239.939209,165.245041 
	C241.517212,143.343689 258.865906,125.241470 280.713776,122.793770 
	C304.504486,120.128403 323.803741,129.940826 341.592438,144.144669 
	C342.680511,145.013504 343.295563,146.560577 343.941284,147.884460 
	C350.788147,161.922623 357.889801,175.848373 364.262360,190.099747 
	C366.609924,195.349762 369.694183,195.830643 374.451843,194.633087 
	C372.950012,170.319336 371.515930,146.213455 369.838898,122.124474 
	C369.736572,120.654770 367.997833,118.750153 366.533813,118.007790 
	C349.221008,109.229057 331.025177,103.342819 311.731934,100.490829 
	C272.110016,94.633781 239.360397,107.205460 212.343674,136.199814 
	C182.790665,167.916107 179.958511,224.387192 226.729858,252.348022 
	C243.680267,262.481293 261.392334,271.334351 278.666046,280.934937 
	C292.007324,288.349884 306.062805,294.855682 318.277893,303.836853 
	C338.944031,319.031677 343.996124,351.162598 330.514282,373.162201 
	C319.937195,390.421844 303.243622,396.754333 284.061707,397.912048 
	C258.474304,399.456390 236.495819,390.230896 216.879837,374.530609 
	C214.896011,372.942780 213.169998,370.720734 212.031357,368.440063 
	C204.982544,354.321564 197.897293,340.210876 191.354050,325.856049 
	C189.108673,320.930054 186.357407,319.374176 181.447662,321.036621 
	C181.338760,321.332062 181.119095,321.634277 181.136734,321.921967 
	C182.645096,346.533691 184.121048,371.147766 185.822296,395.746277 
	C185.925323,397.235657 187.520782,399.232147 188.943100,399.929443 
	C214.956345,412.683868 242.285492,420.135834 271.430817,420.824646 
	C306.755157,421.659546 337.917816,411.630585 362.650726,385.716644 
	C388.253143,358.891693 392.077637,313.787445 371.610016,283.925659 
z"/>
<path fill="#FDFDFD" opacity="1.000000" stroke="none" 
	d="
M1.000000,433.468658 
	C10.428090,433.000000 19.856180,433.000000 29.713539,433.000000 
	C29.713539,452.868622 29.713539,471.776123 29.713539,490.902344 
	C183.901138,490.902344 337.649567,490.902344 491.715485,490.902344 
	C491.715485,337.106781 491.715485,183.241486 491.715485,29.125467 
	C337.842468,29.125467 183.979416,29.125467 29.674139,29.125467 
	C29.674139,48.251724 29.674139,67.157913 29.674139,86.663841 
	C20.122332,86.663841 11.003342,86.663841 1.442176,86.831924 
	C1.000000,58.340618 1.000000,29.681238 1.000000,1.016393 
	C173.282242,1.010929 345.564484,1.010929 517.923340,1.010929 
	C517.923340,172.905167 517.923340,344.810364 517.923340,516.857788 
	C345.666748,516.857788 173.333389,516.857788 1.000000,516.857788 
	C1.000000,489.256378 1.000000,461.596832 1.000000,433.468658 
z"/>
<path fill="#FCFCFC" opacity="1.000000" stroke="none" 
	d="
M1.000000,104.454109 
	C41.789005,104.000000 82.578011,104.000000 123.359398,104.000000 
	C124.949043,109.017471 123.719193,111.948006 118.769493,114.152512 
	C108.616539,118.674469 98.827408,124.006752 88.782791,128.783127 
	C86.283234,129.971710 85.503410,131.387939 85.505646,134.087418 
	C85.575226,218.048523 85.574203,302.009705 85.510780,385.970825 
	C85.508743,388.663849 86.316383,390.080261 88.820587,391.267670 
	C98.720810,395.962067 108.349030,401.253754 118.370728,405.658112 
	C123.215141,407.787109 125.023537,410.499359 123.445808,416.038879 
	C83.120995,416.038879 42.528805,416.038879 1.468306,416.019440 
	C1.000000,412.969391 1.000000,409.938812 1.325346,406.684692 
	C11.953480,401.451294 22.202950,396.326447 32.593895,391.506622 
	C35.443794,390.184723 36.327797,388.597382 36.324436,385.497650 
	C36.233685,301.754974 36.238346,218.012100 36.308571,134.269348 
	C36.310963,131.418793 35.550846,129.875122 32.836277,128.619568 
	C23.497780,124.300316 14.325955,119.621796 5.055042,115.154007 
	C3.807669,114.552887 2.356692,114.374268 0.999999,114.000000 
	C1.000000,110.969406 1.000000,107.938812 1.000000,104.454109 
z"/>
<path fill="#000000" opacity="1.000000" stroke="none" 
	d="
M0.999999,114.468658 
	C2.356692,114.374268 3.807669,114.552887 5.055042,115.154007 
	C14.325955,119.621796 23.497780,124.300316 32.836277,128.619568 
	C35.550846,129.875122 36.310963,131.418793 36.308571,134.269348 
	C36.238346,218.012100 36.233685,301.754974 36.324436,385.497650 
	C36.327797,388.597382 35.443794,390.184723 32.593895,391.506622 
	C22.202950,396.326447 11.953480,401.451294 1.325346,406.230591 
	C1.000000,308.979095 1.000000,211.958206 0.999999,114.468658 
z"/>
<path fill="#FDFDFD" opacity="1.000000" stroke="none" 
	d="
M371.814117,284.222961 
	C392.077637,313.787445 388.253143,358.891693 362.650726,385.716644 
	C337.917816,411.630585 306.755157,421.659546 271.430817,420.824646 
	C242.285492,420.135834 214.956345,412.683868 188.943100,399.929443 
	C187.520782,399.232147 185.925323,397.235657 185.822296,395.746277 
	C184.121048,371.147766 182.645096,346.533691 181.136734,321.921967 
	C181.119095,321.634277 181.338760,321.332062 181.453461,321.038818 
	C186.357407,319.374176 189.108673,320.930054 191.354050,325.856049 
	C197.897293,340.210876 204.982544,354.321564 212.031357,368.440063 
	C213.169998,370.720734 214.896011,372.942780 216.879837,374.530609 
	C236.495819,390.230896 258.474304,399.456390 284.061707,397.912048 
	C303.243622,396.754333 319.937195,390.421844 330.514282,373.162201 
	C343.996124,351.162598 338.944031,319.031677 318.277893,303.836853 
	C306.062805,294.855682 292.007324,288.349884 278.666046,280.934937 
	C261.392334,271.334351 243.680267,262.481293 226.729858,252.348022 
	C179.958511,224.387192 182.790665,167.916107 212.343674,136.199814 
	C239.360397,107.205460 272.110016,94.633781 311.731934,100.490829 
	C331.025177,103.342819 349.221008,109.229057 366.533813,118.007790 
	C367.997833,118.750153 369.736572,120.654770 369.838898,122.124474 
	C371.515930,146.213455 372.950012,170.319336 374.451843,194.633087 
	C369.694183,195.830643 366.609924,195.349762 364.262360,190.099747 
	C357.889801,175.848373 350.788147,161.922623 343.941284,147.884460 
	C343.295563,146.560577 342.680511,145.013504 341.592438,144.144669 
	C323.803741,129.940826 304.504486,120.128403 280.713776,122.793770 
	C258.865906,125.241470 241.517212,143.343689 239.939209,165.245041 
	C238.418030,186.357986 245.354736,203.424713 263.763580,214.502335 
	C278.259766,223.225494 293.442383,230.799789 308.179749,239.132584 
	C322.638794,247.308044 337.354462,255.151596 351.110504,264.400574 
	C358.829926,269.590790 364.833435,277.333160 371.814117,284.222961 
z"/>
</svg>